<?xml version="1.0" encoding="utf-8"?>
<svg version="1.1" xmlns:xlink="http://www.w3.org/1999/xlink" width="19px" height="19px" xmlns="http://www.w3.org/2000/svg">
  <g transform="matrix(1 0 0 1 -43 -546 )">
    <path d="M 15.5983072916667 10.8483072916667  C 15.7549913194444 10.6916232638889  15.8333333333333 10.5060763888889  15.8333333333333 10.2916666666667  L 15.8333333333333 8.70833333333333  C 15.8333333333333 8.49392361111111  15.7549913194444 8.30837673611111  15.5983072916667 8.15169270833333  C 15.4416232638889 7.99500868055556  15.2560763888889 7.91666666666667  15.0416666666667 8  L 3.95833333333333 8  C 3.74392361111111 7.91666666666667  3.55837673611111 7.99500868055556  3.40169270833333 8.15169270833333  C 3.24500868055556 8.30837673611111  3.16666666666667 8.49392361111111  3.16666666666667 8.70833333333333  L 3.16666666666667 10.2916666666667  C 3.16666666666667 10.5060763888889  3.24500868055556 10.6916232638889  3.40169270833333 10.8483072916667  C 3.55837673611111 11.0049913194444  3.74392361111111 11.0833333333333  3.95833333333333 11  L 15.0416666666667 11  C 15.2560763888889 11.0833333333333  15.4416232638889 11.0049913194444  15.5983072916667 10.8483072916667  Z M 17.9547526041667 1.04524739583333  C 18.6515842013889 1.74207899305555  19 2.58116319444444  19 3.5625  L 19 15.4375  C 19 16.4188368055556  18.6515842013889 17.2579210069444  17.9547526041667 17.9547526041667  C 17.2579210069444 18.6515842013889  16.4188368055556 19  15.4375 19  L 3.5625 19  C 2.58116319444444 19  1.74207899305556 18.6515842013889  1.04524739583333 17.9547526041667  C 0.348415798611111 17.2579210069444  0 16.4188368055556  0 15.4375  L 0 3.5625  C 0 2.58116319444444  0.348415798611111 1.74207899305555  1.04524739583333 1.04524739583333  C 1.74207899305556 0.34841579861111  2.58116319444444 0  3.5625 0  L 15.4375 0  C 16.4188368055556 0  17.2579210069444 0.34841579861111  17.9547526041667 1.04524739583333  Z " fill-rule="nonzero" fill="#000000" stroke="none" transform="matrix(1 0 0 1 43 546 )" />
  </g>
</svg>